<svg width="274" height="274" viewBox="0 0 274 274" fill="none" xmlns="http://www.w3.org/2000/svg">
<g clip-path="url(#clip0_2_6)">
<g clip-path="url(#clip1_2_6)">
<path d="M0 0V274H274V0H0Z" fill="#341F6B"/>
<path d="M27.0002 12V63C27.0002 71.1856 24.5757 79.8765 35.0002 80V79H28.0002V33L27.0002 12Z" fill="#4C2E32"/>
<path d="M28 12V13H254L233 12H187H28Z" fill="#A58047"/>
<path d="M254 12V79H255V33L254 12Z" fill="#4C2E32"/>
<path d="M28 78H35V37L36.6034 22.6034L48 21H78H200H233L245.397 22.6034L247 37V78H254V30L252.397 14.0278L239 13H203H75H42L29.6034 14.0278L28 30V78Z" fill="#FCCE39"/>
<path d="M36 21V22H246L226 21H184H36Z" fill="#A58047"/>
<path d="M35 22V78H36V40L35 22Z" fill="#DAB46F"/>
<path d="M36 22V73H37C37 58.6892 41.5084 35.1273 36 22Z" fill="#4C2E32"/>
<path d="M246 22V65C246 71.9056 244.351 78.716 253 79V78H247V40L246 22Z" fill="#DAB46F"/>
<path d="M245 25V73H246C246 59.4735 250.209 37.4144 245 25ZM36 74V77H37L36 74ZM245 75V78H246L245 75Z" fill="#4C2E32"/>
<path d="M29 78V79H34L29 78Z" fill="#DAB46F"/>
<path d="M247 79V80H253L247 79ZM139 84V85H158L139 84ZM137 85L131 94H132L137 85Z" fill="#4C2E32"/>
<path d="M130 111L124 112C124.61 116.4 125.307 119.219 130 120L129.683 146.957L125 162H152C152.568 154.476 150.976 151.245 143 150V120C151.801 120 157.963 121.505 158 111H143C143 105.956 142.042 98.5643 148.001 96.3272C151.695 94.9403 166.962 108.292 163.718 92.0154C162.053 83.6639 144.082 82.8394 138.134 86.8827C130.179 92.2903 130 102.489 130 111Z" fill="#FCCE39"/>
<path d="M151 85V86H155L151 85Z" fill="#DAB46F"/>
<path d="M161 86V87L164 88L161 86ZM44 93H45V88H68C61.6186 85.3223 44.6746 84.3423 44 93Z" fill="#4C2E32"/>
<path d="M162 87L164 91H165L162 87Z" fill="#A58047"/>
<path d="M45 88V91H46L45 88Z" fill="#DAB46F"/>
<path d="M46.0001 88C44.5112 96.0246 49.0013 98.7385 49.7756 106.001C50.9149 116.688 48.7581 127.355 49.0148 138C49.2479 147.67 51.4256 157.665 48.9021 167.285C44.5807 183.758 32.6932 152.758 29.1035 171.005C25.9764 186.9 53.1561 187.319 59.852 176.957C63.4094 171.451 62.9997 163.3 63.0001 157V120C63.0001 111.216 60.8429 102.358 69.0001 97C66.6714 84.7001 56.5583 88 46.0001 88Z" fill="#FCCE39"/>
<path d="M68 88V93H69L68 88Z" fill="#A58047"/>
<path d="M69 91L68 99H69V91Z" fill="#4C2E32"/>
<path d="M164 91V95H165L164 91Z" fill="#DAB46F"/>
<path d="M165 91V96H166L165 91Z" fill="#4C2E32"/>
<path d="M44 93V96H45L44 93Z" fill="#A58047"/>
<path d="M148 95V96L152 98L148 95Z" fill="#DAB46F"/>
<path d="M147 96V97H152L147 96Z" fill="#4C2E32"/>
<path d="M129 98V101H130L129 98Z" fill="#4C2E32"/>
<path d="M152 98L156 103V102L152 98Z" fill="#4C2E32"/>
<path d="M46 99L48 124L47 170H48C51.1449 153.06 49 134.208 49 117C49 111.468 50.9342 102.558 46 99Z" fill="#4C2E32"/>
<path d="M163 99V102H164L163 99Z" fill="#4C2E32"/>
<path d="M63 100V163H64V120L63 100Z" fill="#A58047"/>
<path d="M162 100L154 101V102L162 100Z" fill="#DAB46F"/>
<path d="M129 101L127 110V111C130.515 108.721 130.551 104.698 129 101ZM143 101V110H144L143 101Z" fill="#A58047"/>
<path d="M49 103V111H50L49 103Z" fill="#DAB46F"/>
<path d="M86 108V109H90L86 108Z" fill="#4C2E32"/>
<path d="M90 108V109H100L90 108Z" fill="#A58047"/>
<path d="M100 108V109H104L100 108ZM177 108V109H181L177 108Z" fill="#4C2E32"/>
<path d="M181 108V109H190L181 108Z" fill="#A58047"/>
<path d="M190 108V109L197 110L190 108ZM227 108V109H230L227 108Z" fill="#4C2E32"/>
<path d="M230 108V109H241L230 108Z" fill="#A58047"/>
<path d="M241 108V109H245L241 108Z" fill="#4C2E32"/>
<path d="M86 125L87 119C97.1158 119.008 100.971 122.819 101 133C92.8526 133 82.8556 132.027 76.2284 137.789C69.0973 143.99 72.8679 157.831 81.0147 161.293C89.6435 164.961 98.3215 161.03 105 156C107.054 173.895 131.302 151.991 114 150C114 139.643 116.831 124.375 111.467 115.105C106.704 106.874 82.2612 106.025 76.2593 113.499C69.984 121.314 80.311 124.996 86 125Z" fill="#FCCE39"/>
<path d="M149 109V110H153L149 109ZM154 109V110H157L154 109ZM175 109L172 110V111L176 110L175 109Z" fill="#4C2E32"/>
<path d="M180 109.468C161.02 113.025 155.728 143.629 168.213 156.895C174.062 163.11 186.032 163.458 193.996 161.606C203.002 159.511 207.267 148.034 208.421 140C211.159 120.935 200.432 105.638 180 109.468Z" fill="#FCCE39"/>
<path d="M241 118C243.319 128.833 255.844 119.513 250.968 112.514C248.953 109.621 243.171 109.477 240 109.17C229.149 108.12 215.406 110.538 215.749 124C216.012 134.307 220.755 136.846 230 139.806C233.727 140.999 242.031 142.315 240.914 147.961C238.085 162.251 219.778 140.85 216.122 151.148C210.9 165.858 240.96 164.776 247.699 159.347C249.744 157.7 251.43 155.358 252.558 152.999C262.571 132.05 237.54 134.605 229.623 124.582C224.171 117.68 237.729 118 241 118Z" fill="#FCCE39"/>
<path d="M242 109V110H245L242 109Z" fill="#DAB46F"/>
<path d="M246 109V110H249L246 109ZM78 110V111H82L78 110Z" fill="#4C2E32"/>
<path d="M124 110V111H127L124 110Z" fill="#4C2E32"/>
<path d="M143 110V111H158L157 120C167.476 110.846 147.692 110 143 110Z" fill="#DAB46F"/>
<path d="M198 110V111H201L198 110ZM221 110V111H224L221 110Z" fill="#4C2E32"/>
<path d="M250 110V111L252 118H253L250 110Z" fill="#4C2E32"/>
<path d="M78 111V112H81L78 111ZM108 111V112L111 113L108 111Z" fill="#DAB46F"/>
<path d="M159 111V120H160L159 111ZM170 111C165.612 115.811 162.346 120.35 162 127H163L170 111Z" fill="#4C2E32"/>
<path d="M199 111V112L204 115L199 111Z" fill="#DAB46F"/>
<path d="M49 112V129H50L49 112Z" fill="#DAB46F"/>
<path d="M74 112V116H75L74 112Z" fill="#4C2E32"/>
<path d="M111 112L112 115H113L111 112ZM123 112V119H124L123 112Z" fill="#4C2E32"/>
<path d="M124 115V118H125L124 115Z" fill="#DAB46F"/>
<path d="M74 117L75 126H76L74 117Z" fill="#4C2E32"/>
<path d="M231 118V119H238L231 118Z" fill="#4C2E32"/>
<path d="M238 118V119L241 120L238 118Z" fill="#A58047"/>
<path d="M88 119V120H91L88 119Z" fill="#A58047"/>
<path d="M91 119V120H94L91 119Z" fill="#4C2E32"/>
<path d="M114 119V122H115L114 119Z" fill="#4C2E32"/>
<path d="M183 119V120H188L183 119Z" fill="#A58047"/>
<path d="M214 119V131H215L214 119Z" fill="#4C2E32"/>
<path d="M215 119V122H216L215 119Z" fill="#DAB46F"/>
<path d="M239 119L240 124H241L239 119Z" fill="#4C2E32"/>
<path d="M87 120V124H88L89 120H87ZM125 120V121L129 122L125 120Z" fill="#4C2E32"/>
<path d="M129 120L128 151H129C131.242 143.415 132.078 127.336 129 120ZM143 120V150H144L143 120Z" fill="#A58047"/>
<path d="M144 120V121H159L144 120Z" fill="#4C2E32"/>
<path d="M181 120L178 122V123L182 121L181 120Z" fill="#4C2E32"/>
<path d="M182.044 120.873C172.757 124.573 174.353 155.347 187.956 150.242C198.647 146.23 195.626 115.462 182.044 120.873Z" fill="#341F6B"/>
<path d="M187 120V121L193 125L187 120Z" fill="#4C2E32"/>
<path d="M228 120C228.771 124.734 231.462 126.175 236 127V126L228 120Z" fill="#4C2E32"/>
<path d="M241 121L244 124V123L241 121Z" fill="#DAB46F"/>
<path d="M114 122V125H115L114 122Z" fill="#A58047"/>
<path d="M163 122V125H164L163 122Z" fill="#DAB46F"/>
<path d="M215 123V129H216L215 123ZM245 123V124H250L245 123Z" fill="#DAB46F"/>
<path d="M76 124V125L86 126V125L76 124Z" fill="#DAB46F"/>
<path d="M115 124V150H119V149H116L115 124Z" fill="#4C2E32"/>
<path d="M245 124V125H249L245 124Z" fill="#4C2E32"/>
<path d="M114 125V144H115L114 125Z" fill="#DAB46F"/>
<path d="M128 125C128 134.101 129.5 143.82 125 152C131.16 148.222 130.619 131.241 128 125ZM176 125C176 133.539 173.038 147.428 183 151V150C173.197 144.33 179.576 133.522 176 125Z" fill="#4C2E32"/>
<path d="M209 125V132H210L209 125Z" fill="#4C2E32"/>
<path d="M82 126V127H85L82 126ZM193 126V129H194L193 126Z" fill="#4C2E32"/>
<path d="M194 128V132H195L194 128Z" fill="#A58047"/>
<path d="M100 129C95.859 133.229 89.5605 132 84 132V133C88.1042 133 100.142 134.992 100 129Z" fill="#4C2E32"/>
<path d="M162 129V133H163L162 129Z" fill="#DAB46F"/>
<path d="M215 129V132H216L215 129Z" fill="#A58047"/>
<path d="M243 129V131H245L243 129Z" fill="#4C2E32"/>
<path d="M100 131L99 133H101L100 131Z" fill="#A58047"/>
<path d="M161 132V143H162L161 132ZM194 132L193 142H194V132Z" fill="#4C2E32"/>
<path d="M215 132C217.352 136.289 220.318 137.874 225 139V138L215 132Z" fill="#4C2E32"/>
<path d="M248 132V133L254 137L248 132ZM79 134V135L83 134H79Z" fill="#4C2E32"/>
<path d="M77 135L72 142H73L78 136L77 135Z" fill="#4C2E32"/>
<path d="M209 136V142H210L209 136Z" fill="#4C2E32"/>
<path d="M254 138V152H255L254 138Z" fill="#4C2E32"/>
<path d="M92 139V140H101L92 139ZM208 139V142H209L208 139Z" fill="#DAB46F"/>
<path d="M87 145H88L98 141C93.3243 139.042 88.8577 140.144 87 145Z" fill="#4C2E32"/>
<path d="M99.0001 140C96.7301 140.542 94.264 140.644 92.0425 141.303C79.2743 145.09 99.3745 157.932 99.9075 144.981C99.982 143.172 99.5021 141.702 99.0001 140Z" fill="#341F6B"/>
<path d="M231 141V142H234L231 141Z" fill="#4C2E32"/>
<path d="M72 142V145H73L72 142ZM162 142V146H163L162 142Z" fill="#A58047"/>
<path d="M194 142V145H195L194 142Z" fill="#DAB46F"/>
<path d="M208 142V145H209L208 142Z" fill="#A58047"/>
<path d="M49 143V163H50L49 143Z" fill="#DAB46F"/>
<path d="M71 143V151H72L71 143Z" fill="#4C2E32"/>
<path d="M238 143L239 151H240C240.957 147.479 240.677 145.548 238 143Z" fill="#4C2E32"/>
<path d="M100 144V147H101L100 144Z" fill="#4C2E32"/>
<path d="M86 145V149H87L86 145Z" fill="#A58047"/>
<path d="M162 146V150H163L162 146Z" fill="#4C2E32"/>
<path d="M218 146V147H225L218 146Z" fill="#4C2E32"/>
<path d="M241 146V149H242L241 146Z" fill="#DAB46F"/>
<path d="M100 147V150H101L100 147Z" fill="#A58047"/>
<path d="M217 147V148H226L217 147Z" fill="#A58047"/>
<path d="M87 148L94 152V151L87 148Z" fill="#4C2E32"/>
<path d="M96 150V151L100 150H96Z" fill="#4C2E32"/>
<path d="M215 149C213.702 153.393 212.733 159.234 217 162V161L215 149Z" fill="#4C2E32"/>
<path d="M119 150V162H120C121.228 157.845 121.703 153.568 119 150Z" fill="#A58047"/>
<path d="M148 150V151C152.361 153.447 152.943 156.188 153 161H154C153.981 155.52 153.613 151.972 148 150Z" fill="#4C2E32"/>
<path d="M215 150V153H216L215 150Z" fill="#DAB46F"/>
<path d="M227 150V151L238 152V151L227 150Z" fill="#4C2E32"/>
<path d="M94 151V152H97L94 151Z" fill="#A58047"/>
<path d="M184 151V152H187L184 151Z" fill="#4C2E32"/>
<path d="M121 152V159H122L121 152Z" fill="#4C2E32"/>
<path d="M228 152V153H231L228 152Z" fill="#DAB46F"/>
<path d="M231 152V153H234L231 152Z" fill="#A58047"/>
<path d="M234 152V153H237L234 152Z" fill="#DAB46F"/>
<path d="M166 155L168 159H169L166 155Z" fill="#A58047"/>
<path d="M202 155C196.672 164.738 185.536 163 176 163V164C182.51 164 203.511 166.201 202 155Z" fill="#4C2E32"/>
<path d="M74 156C78.9172 165.256 87.8733 164 97 164V163C87.0543 163 81.7946 162.517 74 156Z" fill="#4C2E32"/>
<path d="M103 156L101 160H102L105 157L103 156Z" fill="#DAB46F"/>
<path d="M103 157L102 160L104 162H105L103 157Z" fill="#4C2E32"/>
<path d="M104 157V160H105L104 157Z" fill="#A58047"/>
<path d="M123 157V161H124L123 157Z" fill="#4C2E32"/>
<path d="M152 157V160H153L152 157Z" fill="#DAB46F"/>
<path d="M105 160L109 163V162L105 160Z" fill="#DAB46F"/>
<path d="M170 160V161L175 163V162L170 160Z" fill="#4C2E32"/>
<path d="M83 162V163H86L83 162ZM87 162V163H97L87 162Z" fill="#DAB46F"/>
<path d="M110 162V163H113L110 162Z" fill="#DAB46F"/>
<path d="M125 162V163H152L125 162Z" fill="#DAB46F"/>
<path d="M176 162V163H192L176 162Z" fill="#DAB46F"/>
<path d="M222 162V163H242L222 162Z" fill="#DAB46F"/>
<path d="M63 163V171H64L63 163ZM106 163V164H116L106 163ZM125 163V164H152L125 163ZM221 163V164H241L221 163Z" fill="#4C2E32"/>
<path d="M30 164V165L40 166L30 164Z" fill="#A58047"/>
<path d="M29 165L28 170H29V165Z" fill="#4C2E32"/>
<path d="M62 167V170H63L62 167ZM40 169V172H41L40 169Z" fill="#DAB46F"/>
<path d="M28 170V173H29L28 170ZM47 170L41 173V174C44.0013 173.773 47.0836 173.477 47 170ZM62 170V173H63L62 170Z" fill="#A58047"/>
<path d="M33 182V183L37 184V183L33 182Z" fill="#4C2E32"/>
<path d="M38 184V185H49L38 184ZM28 189L27 213V257H28V189ZM248 189V190H252L248 189Z" fill="#4C2E32"/>
<path d="M29 190V191H35V248L36 232L35.6821 193.148L29 190Z" fill="#DAB46F"/>
<path d="M246 247H247V191H254C245.112 187.311 246 197.098 246 203V247Z" fill="#DAB46F"/>
<path d="M254 190V257H255V211L254 190Z" fill="#4C2E32"/>
<path d="M28 191V239L29.6034 254.972L42 256H75H203H239L252.397 254.972L254 239V191H247V232L245.397 246.397L231 248H192H35V191H28Z" fill="#FCCE39"/>
<path d="M245 191V243H246V208L245 191ZM36 193V247H37V211L36 193Z" fill="#4C2E32"/>
<path d="M36 247V248H246L226 247H184H36Z" fill="#A58047"/>
<path d="M28 256V257H254L233 256H187H28Z" fill="#A58047"/>
<path d="M30 257V258H245L225 257H181H30ZM249 257V258H252L249 257Z" fill="#4C2E32"/>
</g>
</g>
<defs>
<clipPath id="clip0_2_6">
<rect width="274" height="274" fill="white"/>
</clipPath>
<clipPath id="clip1_2_6">
<rect width="274" height="274" fill="white"/>
</clipPath>
</defs>
</svg>
